<svg id="Layer_1" data-name="Layer 1" xmlns="http://www.w3.org/2000/svg" width="1024" height="1024" viewBox="0 0 1024 1024">
  <defs>
    <style>
      .cls-1 {
        fill: #fff;
      }

      .cls-2 {
        fill: #066b93;
      }
    </style>
  </defs>
  <title>hopoti-logo-white</title>
  <g>
    <path class="cls-1" d="M0,873.41C0,956.24,67.82,1024,150.72,1024H874.16c82.89,0,150.72-67.76,150.72-150.59V150.59C1024.87,67.76,957.05,0,874.16,0H150.72C67.82,0,0,67.76,0,150.59Z"/>
    <path class="cls-2" d="M511.58,852.5a370.83,370.83,0,0,1-41-2.25c-170.88-18.83-308-156.5-326.17-327.37-10.65-100.57,18.72-198.5,82.7-275.77a45.2,45.2,0,0,1,69.68,57.6c-48.34,58.38-70.52,132.48-62.45,208.68C248,642.32,351.5,746.25,480.46,760.45,561.39,769.42,639,744.7,699,691A279.33,279.33,0,0,0,728.12,304.7a45.19,45.19,0,0,1,69.66-57.6,369.62,369.62,0,0,1-38.43,511.17C691.26,819.2,602.75,852.5,511.58,852.5Z"/>
    <path class="cls-2" d="M679.25,386.45a45.27,45.27,0,0,0-61.77-16.52l-59.84,34.52V244.3a45.21,45.21,0,0,0-90.43,0V482.7c0,.85.2,1.64.25,2.48a44.18,44.18,0,0,0,.5,5c.24,1.43.58,2.8.95,4.18a37.79,37.79,0,0,0,3.28,8.59c.4.79.63,1.63,1.08,2.4.21.36.53.61.75,1a45.11,45.11,0,0,0,6.58,8.49c.32.32.69.54,1,.84a45,45,0,0,0,7.45,5.61c.9.54,1.81,1,2.75,1.49a44.1,44.1,0,0,0,7.37,3c.89.27,1.75.61,2.66.83a44.8,44.8,0,0,0,10.58,1.38h0l.13,0A45,45,0,0,0,523,526.52c.94-.23,1.84-.57,2.77-.86a44.6,44.6,0,0,0,7.64-3.15c.54-.28,1.12-.37,1.66-.68L662.7,448.17A45.16,45.16,0,0,0,679.25,386.45Z"/>
  </g>
</svg>
